# xmcd CD database file
#
# Track frame offsets:
#	150
#	15173
#	31461
#	52223
#	71952
#	89171
#	105063
#	119871
#	135562
#	158367
#	177835
#	206788
#	223439
#	244274
#	261411
#	281909
#	301487
#	316412
#	337115
#
# Disc length: 4638 seconds
#
# Revision: 0
# Processed by: cddbd v1.5.2PL0 Copyright (c) Steve Scherf et al.
# Submitted via: CDex 1.70beta2
#
DISCID=2e121c13
DTITLE=SaltaCello - Joking Barber
DYEAR=2010
DGENRE=Jazz
TTITLE0=Joking Barber
TTITLE1=Barber's Comb Tune
TTITLE2=Sahara Sunrise
TTITLE3=Morning Tale
TTITLE4=Firerider
TTITLE5=Dynamic Seven
TTITLE6=Tambourin
TTITLE7=Caravanserai
TTITLE8=An Hour Before Daybreak
TTITLE9=Asian Habanera
TTITLE10=Silk Road Mood
TTITLE11=Little Shepherd
TTITLE12=Secret Garden
TTITLE13=Sounds of Milyang
TTITLE14=Marathon Man
TTITLE15=Lonesome Runner
TTITLE16=Magnum Kayagum
TTITLE17=Ancient Lullaby	
TTITLE18=Barber's Soju Party
EXTD=YEAR: 2010
EXTT0=
EXTT1=
EXTT2=
EXTT3=
EXTT4=
EXTT5=
EXTT6=
EXTT7=
EXTT8=
EXTT9=
EXTT10=
EXTT11=
EXTT12=
EXTT13=
EXTT14=
EXTT15=
EXTT16=
EXTT17=
EXTT18=
PLAYORDER=
